name analog
datacolumns 19
datarows 55
range 0.134 0.161
endheader
time	ground_force_vx	ground_force_vy	ground_force_vz	ground_force_px	ground_force_py	ground_force_pz	l_ground_force_vx	l_ground_force_vy	l_ground_force_vz	l_ground_force_px	l_ground_force_py	l_ground_force_pz	ground_torque_x	ground_torque_y	ground_torque_z	l_ground_torque_x	l_ground_torque_y	l_ground_torque_z
0.134	-0.0	-0.0	-0.0	2.092257261276245	5.716533660888672	-703.9841918945312	-0.0	-0.0	-0.0	-35.10865020751953	16.092363357543945	76.71572875976562	-0.0	-0.0	-0.0	-0.0	-0.0	-0.0
0.1345	-0.0	-0.0	-0.0	-0.5027746558189392	6.822511196136475	-701.8328247070312	-0.0	-0.0	-0.0	-34.905696868896484	16.517921447753906	74.84770202636719	-0.0	-0.0	-0.0	-0.0	-0.0	-0.0
0.135	-0.0	-0.0	-0.0	-3.028810501098633	7.932605743408203	-698.6551513671875	-0.0	-0.0	-0.0	-34.864688873291016	16.2066593170166	76.92566680908203	-0.0	-0.0	-0.0	-0.0	-0.0	-0.0
0.1355	-0.0	-0.0	-0.0	-5.526569843292236	9.792250633239746	-693.3880615234375	-0.0	-0.0	-0.0	-34.70988464355469	16.260290145874023	76.10939025878906	-0.0	-0.0	-0.0	-0.0	-0.0	-0.0
0.136	-0.0	-0.0	-0.0	-7.363527774810791	10.873908996582031	-693.5498657226562	-0.0	-0.0	-0.0	-34.876800537109375	16.104564666748047	75.4547119140625	-0.0	-0.0	-0.0	-0.0	-0.0	-0.0
0.1365	-0.0	-0.0	-0.0	-8.867926597595215	12.716607093811035	-692.137451171875	-0.0	-0.0	-0.0	-34.930416107177734	15.906838417053224	74.07537841796875	-0.0	-0.0	-0.0	-0.0	-0.0	-0.0
0.137	-0.0	-0.0	-0.0	-9.74796199798584	13.6609468460083	-693.1971435546875	-0.0	-0.0	-0.0	-34.733768463134766	16.284503936767578	76.62428283691406	-0.0	-0.0	-0.0	-0.0	-0.0	-0.0
0.1375	-0.0	-0.0	-0.0	-9.878425598144531	14.36195468902588	-693.4343872070312	-0.0	-0.0	-0.0	-34.63233184814453	16.36250114440918	75.50141143798828	-0.0	-0.0	-0.0	-0.0	-0.0	-0.0
0.138	-0.0	-0.0	-0.0	-9.134697914123535	14.183655738830566	-697.9307861328125	-0.0	-0.0	-0.0	-34.97826385498047	16.140365600585938	76.1566162109375	-0.0	-0.0	-0.0	-0.0	-0.0	-0.0
0.1385	-0.0	-0.0	-0.0	-6.797696113586426	14.046878814697266	-698.6371459960938	-0.0	-0.0	-0.0	-34.73358917236328	16.12840461730957	75.0107650756836	-0.0	-0.0	-0.0	-0.0	-0.0	-0.0
0.139	-0.0	-0.0	-0.0	-4.633108139038086	13.57759952545166	-701.34521484375	-0.0	-0.0	-0.0	-34.91242980957031	16.39315414428711	76.46121978759766	-0.0	-0.0	-0.0	-0.0	-0.0	-0.0
0.1395	-0.0	-0.0	-0.0	-3.0749940872192383	13.137667655944824	-701.6747436523438	-0.0	-0.0	-0.0	-35.067718505859375	16.061969757080078	76.41516876220703	-0.0	-0.0	-0.0	-0.0	-0.0	-0.0
0.14	-0.0	-0.0	-0.0	-1.2961782217025757	12.757444381713867	-699.555908203125	-0.0	-0.0	-0.0	-34.83456802368164	16.18272590637207	74.89098358154297	-0.0	-0.0	-0.0	-0.0	-0.0	-0.0
0.1405	-0.0	-0.0	-0.0	-0.9156717658042908	12.602705001831056	-698.31005859375	-0.0	-0.0	-0.0	-34.667293548583984	16.206317901611328	75.05780029296875	-0.0	-0.0	-0.0	-0.0	-0.0	-0.0
0.14100000000000001	-0.0	-0.0	-0.0	-0.91559636592865	12.508710861206056	-696.1641845703125	-0.0	-0.0	-0.0	-35.1882438659668	15.701696395874023	75.54634094238281	-0.0	-0.0	-0.0	-0.0	-0.0	-0.0
0.14150000000000001	-0.0	-0.0	-0.0	-0.678560197353363	13.102169036865234	-696.9918212890625	-0.0	-0.0	-0.0	-34.81098556518555	16.429323196411133	75.4547119140625	-0.0	-0.0	-0.0	-0.0	-0.0	-0.0
0.14200000000000002	-0.0	-0.0	-0.0	-0.3993069231510162	12.869805335998535	-698.63623046875	-0.0	-0.0	-0.0	-34.698265075683594	16.351102828979492	75.6689224243164	-0.0	-0.0	-0.0	-0.0	-0.0	-0.0
0.14250000000000002	-0.0	-0.0	-0.0	-0.2483133375644683	13.082868576049805	-699.3424072265625	-0.0	-0.0	-0.0	-34.73304748535156	16.072830200195312	76.1566162109375	-0.0	-0.0	-0.0	-0.0	-0.0	-0.0
0.14300000000000002	-0.0	-0.0	-0.0	-0.8957828283309937	12.799976348876951	-705.2689208984375	-0.0	-0.0	-0.0	-35.1138916015625	16.27289390563965	75.22828674316406	-0.0	-0.0	-0.0	-0.0	-0.0	-0.0
0.14350000000000002	-0.0	-0.0	-0.0	-2.552319049835205	11.699252128601074	-712.056640625	-0.0	-0.0	-0.0	-34.97826385498047	15.91303253173828	76.46234893798828	-0.0	-0.0	-0.0	-0.0	-0.0	-0.0
0.14400000000000002	-0.0	-0.0	-0.0	-3.168598175048828	10.908550262451172	-717.2298583984375	-0.0	-0.0	-0.0	-34.900291442871094	16.005512237548828	77.380126953125	-0.0	-0.0	-0.0	-0.0	-0.0	-0.0
0.1445	-0.0	-0.0	-0.0	-3.401519298553467	9.91649341583252	-726.2747802734375	-0.0	-0.0	-0.0	-34.452964782714844	16.374473571777344	74.88758850097656	-0.0	-0.0	-0.0	-0.0	-0.0	-0.0
0.145	-0.0	-0.0	-0.0	-4.057699680328369	8.691591262817383	-733.7258911132812	-0.0	-0.0	-0.0	-34.81077575683594	16.104564666748047	77.33626556396484	-0.0	-0.0	-0.0	-0.0	-0.0	-0.0
0.1455	-0.0	-0.0	-0.0	-3.881885051727295	8.7437744140625	-736.5972900390625	-0.0	-0.0	-0.0	-34.553749084472656	16.00313949584961	77.20947265625	-0.0	-0.0	-0.0	-0.0	-0.0	-0.0
0.146	-0.0	-0.0	-0.0	-4.181473255157471	7.576084136962891	-741.6693115234375	-0.0	-0.0	-0.0	-34.66584014892578	16.115982055664062	76.1566162109375	-0.0	-0.0	-0.0	-0.0	-0.0	-0.0
0.1465	-0.0	-0.0	-0.0	-4.771775245666504	6.5862345695495605	-743.8872680664062	-0.0	-0.0	-0.0	-34.687225341796875	15.813053131103516	76.20106506347656	-0.0	-0.0	-0.0	-0.0	-0.0	-0.0
0.147	-0.0	-0.0	-0.0	-5.084999084472656	6.148326396942139	-744.1051635742188	-0.0	-0.0	-0.0	-34.74375915527344	16.07049560546875	76.507568359375	-0.0	-0.0	-0.0	-0.0	-0.0	-0.0
0.1475	-0.0	-0.0	-0.0	-5.3752760887146	5.470891952514648	-745.6525268554688	-0.0	-0.0	-0.0	-34.464019775390625	16.47576141357422	75.27810668945312	-0.0	-0.0	-0.0	-0.0	-0.0	-0.0
0.148	-0.0	-0.0	-0.0	-5.821257591247559	4.624589443206787	-745.5225219726562	-0.0	-0.0	-0.0	-34.866363525390625	16.149404525756836	76.90253448486328	-0.0	-0.0	-0.0	-0.0	-0.0	-0.0
0.1485	-0.0	-0.0	-0.0	-5.832474708557129	4.556005001068115	-746.0051879882812	-0.0	-0.0	-0.0	-34.60933303833008	16.160757064819336	76.1126937866211	-0.0	-0.0	-0.0	-0.0	-0.0	-0.0
0.149	-0.0	-0.0	-0.0	-5.87726640701294	4.601132869720459	-744.5032958984375	-0.0	-0.0	-0.0	-35.29146957397461	15.924625396728516	74.97166442871094	-0.0	-0.0	-0.0	-0.0	-0.0	-0.0
0.1495	-0.0	-0.0	-0.0	-6.790890216827393	4.857458591461182	-741.4144897460938	-0.0	-0.0	-0.0	-34.844322204589844	15.992228507995604	75.89290618896484	-0.0	-0.0	-0.0	-0.0	-0.0	-0.0
0.15	-0.0	-0.0	-0.0	-5.486512184143066	5.225220203399658	-739.9561767578125	-0.0	-0.0	-0.0	-34.88880157470703	15.992270469665527	75.4547119140625	-0.0	-0.0	-0.0	-0.0	-0.0	-0.0
0.1505	-0.0	-0.0	-0.0	-5.620262145996094	4.801752090454102	-736.8656005859375	-0.0	-0.0	-0.0	-34.73200607299805	16.00347137451172	75.01697540283203	-0.0	-0.0	-0.0	-0.0	-0.0	-0.0
0.151	-0.0	-0.0	-0.0	-4.97360372543335	4.824124336242676	-737.1304321289062	-0.0	-0.0	-0.0	-34.82139205932617	16.150190353393555	75.49795532226562	-0.0	-0.0	-0.0	-0.0	-0.0	-0.0
0.1515	-0.0	-0.0	-0.0	-4.561450958251953	4.49034595489502	-734.480224609375	-0.0	-0.0	-0.0	-34.786895751953125	15.957818031311035	75.67618560791016	-0.0	-0.0	-0.0	-0.0	-0.0	-0.0
0.152	-0.0	-0.0	-0.0	-3.1554672718048096	4.156059265136719	-736.423828125	-0.0	-0.0	-0.0	-34.70988464355469	15.79981803894043	76.24263763427734	-0.0	-0.0	-0.0	-0.0	-0.0	-0.0
0.1525	-0.0	-0.0	-0.0	-2.4771504402160645	2.8302016258239746	-735.673828125	-0.0	-0.0	-0.0	-34.69895935058594	16.11555290222168	75.84852600097656	-0.0	-0.0	-0.0	-0.0	-0.0	-0.0
0.153	-0.0	-0.0	-0.0	-1.0279918909072876	2.328359365463257	-735.5	-0.0	-0.0	-0.0	-35.10044479370117	16.216476440429688	74.22209167480469	-0.0	-0.0	-0.0	-0.0	-0.0	-0.0
0.1535	-0.0	-0.0	-0.0	1.3819217681884766	1.3041623830795288	-736.7333984375	-0.0	-0.0	-0.0	-34.956520080566406	16.22983741760254	76.42227172851562	-0.0	-0.0	-0.0	-0.0	-0.0	-0.0
0.154	-0.0	-0.0	-0.0	3.75576114654541	-0.8675349950790405	-738.4129028320312	-0.0	-0.0	-0.0	-34.574302673339844	16.036386489868164	75.18875885009766	-0.0	-0.0	-0.0	-0.0	-0.0	-0.0
0.1545	-0.0	-0.0	-0.0	5.071963787078857	-3.228288173675537	-742.5651245117188	-0.0	-0.0	-0.0	-34.9998893737793	16.071943283081055	74.4866943359375	-0.0	-0.0	-0.0	-0.0	-0.0	-0.0
0.155	-0.0	-0.0	-0.0	5.644405841827393	-4.799754619598389	-741.4964599609375	-0.0	-0.0	-0.0	-34.86725234985352	16.061220169067383	75.49697875976562	-0.0	-0.0	-0.0	-0.0	-0.0	-0.0
0.1555	-0.0	-0.0	-0.0	5.252613067626953	-6.5173163414001465	-744.3321533203125	-0.0	-0.0	-0.0	-35.19295120239258	15.820272445678713	75.49683380126953	-0.0	-0.0	-0.0	-0.0	-0.0	-0.0
0.156	-0.0	-0.0	-0.0	4.485106945037842	-7.095110893249512	-745.3496704101562	-0.0	-0.0	-0.0	-34.831451416015625	15.877705574035645	75.1877212524414	-0.0	-0.0	-0.0	-0.0	-0.0	-0.0
0.1565	-0.0	-0.0	-0.0	4.163843154907227	-7.290409564971924	-743.9672241210938	-0.0	-0.0	-0.0	-35.10377502441406	16.173049926757812	74.61136627197266	-0.0	-0.0	-0.0	-0.0	-0.0	-0.0
0.157	-0.0	-0.0	-0.0	1.37029767036438	-6.941467761993408	-744.150146484375	-0.0	-0.0	-0.0	-34.935691833496094	16.2159423828125	75.9896011352539	-0.0	-0.0	-0.0	-0.0	-0.0	-0.0
0.1575	-0.0	-0.0	-0.0	-0.5672900080680847	-5.704345703125	-743.3591918945312	-0.0	-0.0	-0.0	-34.83116149902344	16.432445526123047	76.03179931640625	-0.0	-0.0	-0.0	-0.0	-0.0	-0.0
0.158	-0.0	-0.0	-0.0	-2.661668300628662	-5.604572772979736	-743.5439453125	-0.0	-0.0	-0.0	-34.72046661376953	15.967192649841309	76.2811508178711	-0.0	-0.0	-0.0	-0.0	-0.0	-0.0
0.1585	-0.0	-0.0	-0.0	-5.452455520629883	-6.695384979248047	-744.4022827148438	-0.0	-0.0	-0.0	-34.67314910888672	16.14698028564453	76.21802520751953	-0.0	-0.0	-0.0	-0.0	-0.0	-0.0
0.159	-0.0	-0.0	-0.0	-6.869209289550781	-8.021736145019531	-745.85595703125	-0.0	-0.0	-0.0	-34.799346923828125	16.61268424987793	75.76445007324219	-0.0	-0.0	-0.0	-0.0	-0.0	-0.0
0.1595	-0.0	-0.0	-0.0	-7.625108242034912	-9.746846199035645	-748.927490234375	-0.0	-0.0	-0.0	-34.64140701293945	15.84520435333252	75.1860580444336	-0.0	-0.0	-0.0	-0.0	-0.0	-0.0
0.16	-0.0	-0.0	-0.0	-8.417336463928223	-10.894922256469728	-751.7535400390625	-0.0	-0.0	-0.0	-34.68898391723633	16.612850189208984	75.4727554321289	-0.0	-0.0	-0.0	-0.0	-0.0	-0.0
0.1605	-0.0	-0.0	-0.0	-8.438179969787598	-11.4296293258667	-754.7869873046875	-0.0	-0.0	-0.0	-34.62042999267578	16.374473571777344	77.39701843261719	-0.0	-0.0	-0.0	-0.0	-0.0	-0.0
0.161	-0.0	-0.0	-0.0	-8.642956733703613	-12.074417114257812	-754.7040405273438	-0.0	-0.0	-0.0	-34.530967712402344	15.935076713562012	75.91201782226562	-0.0	-0.0	-0.0	-0.0	-0.0	-0.0
